<svg width="256" height="282" viewBox="0 0 256 282" version="1.1" xmlns="http://www.w3.org/2000/svg" xmlns:xlink="http://www.w3.org/1999/xlink">
<title>LOGO mini</title>
<desc>Created using Figma</desc>
<g id="Canvas" transform="translate(1807 392)">
<g id="LOGO mini">
<g id="LABEL SHAPE">
<use xlink:href="#path0_fill" transform="translate(-1835 -392)" fill="#FA6E36"/>
</g>
<g id="PRINTABLE">
<g id="TANG">
<g id="tang">
<use xlink:href="#path1_fill" transform="translate(-1784 -223)" fill="#FFFFFF"/>
</g>
<g id="tang">
<use xlink:href="#path1_fill" transform="translate(-1786 -223)" fill="#FFFFFF"/>
</g>
</g>
<g id="K">
<g id="circle">
<g id="Group">
<g id="&#194;&#169;">
<use xlink:href="#path2_fill" transform="translate(-1753 -378.896)" fill="#FFFFFF"/>
</g>
<g id="Ellipse">
<use xlink:href="#path3_fill" transform="translate(-1740.06 -367.786)" fill="#FFFFFF"/>
</g>
</g>
</g>
<g id="Group">
<g id="k">
<use xlink:href="#path4_fill" transform="translate(-1721 -361.453)"/>
</g>
<g id="k">
<use xlink:href="#path4_fill" transform="translate(-1722 -359.401)"/>
</g>
</g>
</g>
</g>
</g>
</g>
<defs>
<path id="path0_fill" d="M 31.845 177.407L 68.381 57.4075C 78.764 23.3054 110.221 0 145.869 0L 171.956 0C 209.086 0 241.461 25.2445 250.513 61.2539L 280.676 181.254C 293.533 232.402 254.859 282 202.12 282L 109.333 282C 54.9357 282 16.0009 229.446 31.845 177.407Z"/>
<path id="path1_fill" d="M 45.3647 48.8794C 45.3647 49.8481 45.2588 50.7715 45.0469 51.6494C 44.835 52.4971 44.5928 53.3447 44.3203 54.1924C 44.0479 55.0098 43.7603 55.8574 43.4575 56.7354C 43.1851 57.583 42.9731 58.4609 42.8218 59.3691C 42.5493 60.8828 42.0044 62.1392 41.187 63.1382C 40.3696 64.1372 39.3857 64.9243 38.2354 65.4995C 37.085 66.105 35.7983 66.5439 34.3755 66.8164C 32.9829 67.1191 31.5449 67.3462 30.0615 67.4976C 28.5781 67.6489 27.1099 67.7549 25.6567 67.8154C 24.2339 67.876 22.917 67.9819 21.7061 68.1333C 21.252 67.8003 20.8735 67.437 20.5708 67.0435C 20.2681 66.6499 19.9805 66.2715 19.708 65.9082C 19.4355 65.5752 19.1328 65.2876 18.7998 65.0454C 18.4668 64.8335 18.0278 64.7275 17.4829 64.7275C 17.3013 64.7275 17.1499 64.4854 17.0288 64.001C 16.938 63.4863 16.8472 62.9263 16.7563 62.3208C 16.6655 61.6851 16.5596 61.125 16.4385 60.6406C 16.3477 60.126 16.2114 59.8687 16.0298 59.8687C 15.3335 59.8687 14.7734 59.7173 14.3496 59.4146C 13.9561 59.1118 13.6382 58.7334 13.396 58.2793C 13.1841 57.7949 13.0327 57.2651 12.9419 56.6899C 12.8813 56.1147 12.8511 55.5547 12.8511 55.0098C 12.8511 54.5859 12.7603 54.1924 12.5786 53.8291C 12.397 53.4658 12.2002 53.1177 11.9883 52.7847C 11.7764 52.4214 11.5796 52.0581 11.3979 51.6948C 11.2163 51.3315 11.1255 50.9531 11.1255 50.5596C 11.1255 50.1055 11.1406 49.5454 11.1709 48.8794C 11.2314 48.1831 11.2769 47.4717 11.3071 46.7451C 11.3677 46.0186 11.4131 45.3071 11.4434 44.6108C 11.5039 43.9146 11.5342 43.3394 11.5342 42.8853C 11.5342 42.3403 11.5947 41.8862 11.7158 41.5229C 11.8672 41.1597 12.0337 40.8418 12.2153 40.5693C 12.397 40.2969 12.5483 40.0547 12.6694 39.8428C 12.8208 39.6309 12.8965 39.3887 12.8965 39.1162C 12.8965 38.7529 12.8057 38.4502 12.624 38.208C 12.4727 37.9658 12.397 37.7236 12.397 37.4814C 12.397 37.1484 12.5029 36.8306 12.7148 36.5278C 12.9268 36.1948 13.0781 35.8618 13.1689 35.5288C 13.502 34.1968 13.6685 32.8799 13.6685 31.5781C 13.6685 31.3057 13.6533 31.0483 13.623 30.8062C 13.623 30.5337 13.6079 30.2764 13.5776 30.0342C 12.8813 29.459 12.1094 29.0957 11.2617 28.9443C 10.4141 28.7627 9.56641 28.6416 8.71875 28.5811C 7.87109 28.4902 7.05371 28.3843 6.2666 28.2632C 5.47949 28.1421 4.81348 27.8242 4.26855 27.3096C 3.81445 26.8857 3.40576 26.4165 3.04248 25.9019C 2.6792 25.3569 2.19482 24.9937 1.58936 24.812C 1.16553 24.6606 0.802246 24.4639 0.499512 24.2217C 0.227051 23.9492 0.0908203 23.5708 0.0908203 23.0864C 0.0908203 22.3599 0.302734 21.8149 0.726562 21.4517C 1.18066 21.0581 1.71045 20.7554 2.31592 20.5435C 2.92139 20.3013 3.54199 20.1045 4.17773 19.9531C 4.84375 19.7715 5.40381 19.5142 5.85791 19.1812C 6.31201 18.8481 6.85693 18.6816 7.49268 18.6816C 7.76514 18.6816 8.02246 18.6968 8.26465 18.7271C 8.53711 18.7271 8.80957 18.7271 9.08203 18.7271C 9.83887 18.7271 10.4595 18.606 10.9438 18.3638C 11.4585 18.0913 11.8521 17.7432 12.1245 17.3193C 12.4272 16.8652 12.624 16.3506 12.7148 15.7754C 12.8359 15.2002 12.8965 14.5796 12.8965 13.9136C 12.8965 12.9448 12.8359 12.0063 12.7148 11.0981C 12.5938 10.1899 12.5332 9.25147 12.5332 8.28271C 12.5332 7.1626 12.6846 6.1333 12.9873 5.19482C 13.29 4.25635 13.8652 3.39356 14.7129 2.60645C 14.8945 2.45508 15.0913 2.2583 15.3032 2.01611C 15.5151 1.77392 15.7422 1.54687 15.9844 1.33496C 16.2266 1.09277 16.4687 0.895998 16.7109 0.744629C 16.9834 0.59326 17.2559 0.517578 17.5283 0.517578C 17.71 0.517578 17.8613 0.562988 17.9824 0.653809C 18.1338 0.714357 18.2852 0.805178 18.4365 0.92627C 19.1025 1.59228 19.5264 2.0918 19.708 2.4248C 19.9199 2.72754 20.0259 3.09082 20.0259 3.51465C 20.0259 3.75684 20.0107 4.0293 19.9805 4.33203C 19.9805 4.60449 19.9805 4.96777 19.9805 5.42188C 19.9805 6.39063 20.1016 7.34424 20.3438 8.28271C 20.5859 9.22119 20.707 10.0234 20.707 10.6895C 20.707 11.2646 20.5859 11.8247 20.3438 12.3696C 20.1318 12.8843 20.0259 13.4292 20.0259 14.0044C 20.0259 14.4282 20.1167 14.8218 20.2983 15.1851C 20.5103 15.5181 20.7373 15.8511 20.9795 16.1841C 21.252 16.5171 21.4941 16.8652 21.7061 17.2285C 21.918 17.5615 22.0239 17.9551 22.0239 18.4092C 22.3267 18.6211 23.0078 18.8179 24.0674 18.9995C 25.127 19.1509 26.3076 19.2871 27.6094 19.4082C 28.9111 19.499 30.228 19.5747 31.5601 19.6353C 32.8921 19.6958 33.9971 19.7261 34.875 19.7261C 35.6621 19.7261 36.2676 19.7866 36.6914 19.9077C 37.1152 20.0288 37.4634 20.165 37.7358 20.3164C 38.0386 20.4375 38.311 20.5737 38.5532 20.7251C 38.7954 20.8765 39.1133 20.9673 39.5068 20.9976C 39.9912 21.0581 40.3999 21.1943 40.7329 21.4062C 41.0962 21.5879 41.2778 21.9663 41.2778 22.5415C 41.2778 23.2681 41.0811 23.8433 40.6875 24.2671C 40.3242 24.6909 39.855 25.0088 39.2798 25.2207C 38.7349 25.4326 38.1445 25.5688 37.5088 25.6294C 36.873 25.6597 36.2827 25.6748 35.7378 25.6748C 34.8599 25.6748 33.9819 25.6445 33.104 25.584C 32.2261 25.5234 31.3481 25.4932 30.4702 25.4932C 29.0171 25.4932 27.7002 25.6294 26.5195 25.9019C 25.3389 26.1743 24.3096 26.6284 23.4316 27.2642C 22.584 27.8999 21.918 28.7476 21.4336 29.8071C 20.9795 30.8364 20.7524 32.1382 20.7524 33.7124C 20.7524 35.2563 20.8433 36.77 21.0249 38.2534C 21.2368 39.7368 21.3428 41.2505 21.3428 42.7944C 21.3428 44.2476 21.3579 45.4131 21.3882 46.291C 21.4487 47.1689 21.6304 47.9106 21.9331 48.5161C 22.3267 49.394 22.6445 50.3931 22.8867 51.5132C 23.1289 52.6333 23.4316 53.6929 23.7949 54.6919C 24.1885 55.6909 24.7183 56.5386 25.3843 57.2349C 26.0806 57.9009 27.0947 58.2339 28.4268 58.2339C 28.8809 58.2339 29.4863 58.1733 30.2432 58.0522C 31 57.9312 31.7568 57.7495 32.5137 57.5073C 33.2705 57.2349 33.9214 56.9019 34.4663 56.5083C 35.0112 56.0845 35.2837 55.5698 35.2837 54.9644C 35.2837 54.4497 35.1323 53.9351 34.8296 53.4204C 34.5269 52.8755 34.3755 52.3003 34.3755 51.6948C 34.3755 51.271 34.4663 50.9077 34.6479 50.605C 34.8599 50.272 35.1172 49.9844 35.4199 49.7422C 35.7529 49.4697 36.0859 49.2427 36.4189 49.061C 36.7822 48.8491 37.1304 48.6675 37.4634 48.5161C 38.0083 47.8198 38.6592 47.2446 39.416 46.7905C 40.2031 46.3062 41.0356 46.064 41.9136 46.064C 42.519 46.064 43.0942 46.1699 43.6392 46.3818C 44.2144 46.5937 44.7441 46.8662 45.2285 47.1992C 45.3193 47.7441 45.3647 48.3042 45.3647 48.8794ZM 97.7699 57.0532C 97.7699 57.5679 97.6791 58.0522 97.4974 58.5063C 97.3158 58.9604 97.1493 59.4297 96.9979 59.9141C 96.8768 60.3379 96.786 60.686 96.7254 60.9585C 96.6952 61.231 96.6346 61.4731 96.5438 61.6851C 96.453 61.8667 96.3016 62.0483 96.0897 62.23C 95.9081 62.3813 95.6053 62.563 95.1815 62.7749C 94.2733 63.2593 93.3045 63.7588 92.2753 64.2734C 91.2762 64.7578 90.2621 65 89.2328 65C 88.3548 65 87.5223 64.8032 86.7352 64.4097C 85.9784 63.9858 85.267 63.5317 84.6009 63.0474C 83.9652 62.5327 83.3749 62.0635 82.8299 61.6396C 82.3153 61.2158 81.8763 61.0039 81.513 61.0039C 81.1195 61.0039 80.7713 61.1099 80.4686 61.3218C 80.1962 61.5337 79.9086 61.7607 79.6058 62.0029C 79.3334 62.2451 79.0155 62.4722 78.6522 62.6841C 78.3192 62.896 77.8954 63.002 77.3807 63.002C 76.9569 63.002 76.5179 63.0776 76.0638 63.229C 75.6097 63.3804 75.1556 63.562 74.7015 63.7739C 74.2474 63.9556 73.7782 64.1523 73.2938 64.3643C 72.8397 64.5459 72.4159 64.6973 72.0223 64.8184C 70.66 65.1816 69.2826 65.3936 67.89 65.4541C 66.5277 65.5146 65.1503 65.5449 63.7577 65.5449C 63.3944 65.5449 62.8343 65.5298 62.0775 65.4995C 61.3207 65.4995 60.5487 65.4238 59.7616 65.2725C 59.0047 65.1514 58.3236 64.9395 57.7181 64.6367C 57.1429 64.334 56.8553 63.9102 56.8553 63.3652C 56.8553 63.2441 56.8705 63.1382 56.9007 63.0474C 56.6888 63.2896 56.4466 63.4863 56.1742 63.6377C 55.9017 63.7891 55.599 63.8647 55.266 63.8647C 54.7816 63.8647 54.1913 63.5317 53.495 62.8657C 52.7987 62.1997 52.1327 61.4277 51.4969 60.5498C 50.8612 59.6719 50.3163 58.8091 49.8622 57.9614C 49.4081 57.0835 49.181 56.4326 49.181 56.0088C 49.181 55.6758 49.2718 55.373 49.4535 55.1006C 49.6654 54.8281 49.7713 54.5254 49.7713 54.1924C 49.7713 53.7686 49.7108 53.375 49.5897 53.0117C 49.4989 52.6182 49.4535 52.2095 49.4535 51.7856C 49.4535 51.2407 49.5594 50.6655 49.7713 50.0601C 49.9833 49.4243 50.2406 48.8037 50.5433 48.1982C 50.8461 47.5625 51.1639 46.957 51.4969 46.3818C 51.8299 45.7764 52.1327 45.2163 52.4051 44.7017C 52.7079 44.0962 53.1317 43.6118 53.6766 43.2485C 54.2215 42.8853 54.7967 42.5674 55.4022 42.2949C 56.0077 42.0225 56.6131 41.75 57.2186 41.4775C 57.8241 41.2051 58.3539 40.8418 58.808 40.3877C 59.2621 40.9023 59.8524 41.1597 60.579 41.1597C 61.3358 41.1597 62.0775 41.0537 62.8041 40.8418C 63.5306 40.5996 64.2723 40.4785 65.0292 40.4785C 65.6346 40.4785 66.2098 40.5391 66.7547 40.6602C 67.3299 40.7813 67.9203 40.8418 68.5257 40.8418C 69.1918 40.8418 69.6761 40.7661 69.9789 40.6147C 70.3119 40.4331 70.7206 40.1304 71.2049 39.7065C 71.6893 39.2827 72.2948 38.9648 73.0213 38.7529C 73.7782 38.5107 74.5502 38.3291 75.3373 38.208C 76.1546 38.0566 76.9569 37.9053 77.744 37.7539C 78.5614 37.6025 79.2879 37.3906 79.9237 37.1182C 80.5594 36.8154 81.0741 36.4219 81.4676 35.9375C 81.8612 35.4229 82.058 34.7266 82.058 33.8486C 82.058 32.8799 81.7704 31.8657 81.1952 30.8062C 80.6503 29.7163 79.9388 28.7324 79.0609 27.8545C 78.183 26.9463 77.2142 26.2046 76.1546 25.6294C 75.0951 25.0542 74.0809 24.7666 73.1122 24.7666C 72.9911 24.7666 72.87 24.7817 72.7489 24.812C 72.6278 24.8423 72.5218 24.8574 72.431 24.8574C 71.7045 24.9785 70.8871 25.0693 69.9789 25.1299C 69.0707 25.1602 68.223 25.2964 67.4359 25.5386C 66.6488 25.7505 65.9828 26.1289 65.4379 26.6738C 64.8929 27.1885 64.6205 27.9604 64.6205 28.9897C 64.6205 29.5952 64.6659 30.2007 64.7567 30.8062C 64.8778 31.3813 64.9383 31.9717 64.9383 32.5771C 64.9383 33.4854 64.7113 34.2422 64.2572 34.8477C 63.8334 35.4531 63.2733 35.9375 62.577 36.3008C 61.911 36.6641 61.1693 36.9214 60.3519 37.0728C 59.5345 37.1938 58.7474 37.2544 57.9906 37.2544C 57.0824 37.2544 56.2953 37.1333 55.6293 36.8911C 54.9632 36.6489 54.4183 36.0889 53.9945 35.2109C 53.6615 34.5752 53.2982 33.894 52.9046 33.1675C 52.5414 32.4106 52.3597 31.6538 52.3597 30.897C 52.3597 30.0796 52.496 29.3228 52.7684 28.6265C 53.0712 27.8999 53.4042 27.2036 53.7674 26.5376C 54.1307 25.8413 54.4789 25.1602 54.8119 24.4941C 55.1752 23.7979 55.4325 23.0562 55.5838 22.269C 55.7958 22.1479 56.0834 22.0269 56.4466 21.9058C 56.8402 21.7847 57.2489 21.6636 57.6727 21.5425C 58.1268 21.4214 58.5506 21.3154 58.9442 21.2246C 59.368 21.1035 59.7162 20.9976 59.9886 20.9067C 60.7152 20.6948 61.4115 20.4526 62.0775 20.1802C 62.7738 19.8774 63.4701 19.605 64.1664 19.3628C 64.8929 19.1206 65.6044 18.9087 66.3006 18.7271C 67.0272 18.5454 67.7689 18.4395 68.5257 18.4092L 69.9335 18.3638C 71.2352 18.3638 72.5672 18.4849 73.9296 18.7271C 75.2919 18.939 76.6239 19.2871 77.9256 19.7715C 79.2274 20.2559 80.4535 20.8613 81.6039 21.5879C 82.7845 22.2842 83.829 23.1167 84.7372 24.0854C 85.4032 24.812 85.9481 25.6748 86.3719 26.6738C 86.826 27.6426 87.1742 28.6719 87.4164 29.7617C 87.6888 30.8516 87.8705 31.9565 87.9613 33.0767C 88.0824 34.1665 88.1429 35.1807 88.1429 36.1191C 88.1429 37.3906 88.0975 38.647 88.0067 39.8882C 87.9462 41.0991 87.9159 42.3403 87.9159 43.6118C 87.9159 44.8228 87.9764 46.0337 88.0975 47.2446C 88.2489 48.4253 88.4154 49.6211 88.597 50.832C 88.7787 52.0127 88.93 53.2085 89.0511 54.4194C 89.2025 55.6001 89.2782 56.7808 89.2782 57.9614C 89.3387 58.688 89.4295 59.1421 89.5506 59.3237C 89.702 59.4751 89.8534 59.5508 90.0047 59.5508C 90.6708 59.5508 91.2005 59.354 91.5941 58.9604C 92.0179 58.5366 92.3963 58.0825 92.7294 57.5981C 93.0624 57.0835 93.4256 56.6143 93.8192 56.1904C 94.2128 55.7666 94.7123 55.5547 95.3177 55.5547C 95.5902 55.5547 95.8627 55.5698 96.1351 55.6001C 96.4378 55.6304 96.7103 55.7061 96.9525 55.8271C 97.1947 55.918 97.3915 56.0693 97.5428 56.2812C 97.6942 56.4629 97.7699 56.7202 97.7699 57.0532ZM 82.8299 45.7461C 82.8299 45.5645 82.8148 45.2466 82.7845 44.7925C 82.7845 44.3384 82.7543 43.8843 82.6937 43.4302C 82.6332 42.9458 82.5272 42.522 82.3758 42.1587C 82.2547 41.7954 82.058 41.6138 81.7855 41.6138C 81.725 41.6138 81.6493 41.644 81.5585 41.7046C 81.4676 41.7349 81.392 41.75 81.3314 41.75C 80.181 42.3857 79.1971 42.9155 78.3797 43.3394C 77.5624 43.7329 76.745 44.0659 75.9276 44.3384C 75.1405 44.5806 74.2928 44.7471 73.3846 44.8379C 72.4764 44.9287 71.3412 44.9741 69.9789 44.9741C 69.7972 44.9741 69.2977 45.0498 68.4803 45.2012C 67.6629 45.3525 66.7699 45.5342 65.8011 45.7461C 64.8324 45.9277 63.9242 46.1245 63.0765 46.3364C 62.2289 46.5181 61.6991 46.6392 61.4872 46.6997C 61.0936 46.8511 60.806 47.0024 60.6244 47.1538C 60.473 47.3052 60.3519 47.4717 60.2611 47.6533C 60.1703 47.835 60.0795 48.0317 59.9886 48.2437C 59.8978 48.4253 59.7313 48.6221 59.4891 48.834C 59.1864 49.0762 58.8534 49.2729 58.4901 49.4243C 58.1571 49.5757 57.8392 49.8027 57.5365 50.1055C 57.0824 50.5596 56.6586 51.165 56.265 51.9219C 55.8714 52.6484 55.6747 53.3447 55.6747 54.0107C 55.6747 54.8281 55.8866 55.5547 56.3104 56.1904C 56.7342 56.8262 57.2943 57.3711 57.9906 57.8252C 58.6869 58.2793 59.474 58.6729 60.3519 59.0059C 61.2298 59.3389 62.1078 59.5962 62.9857 59.7778C 63.8939 59.9595 64.7567 60.0957 65.5741 60.1865C 66.4217 60.2773 67.1483 60.3228 67.7538 60.3228C 68.4803 60.3228 69.3431 60.2773 70.3421 60.1865C 71.3412 60.0654 72.3402 59.8989 73.3392 59.687C 74.3382 59.4448 75.2767 59.127 76.1546 58.7334C 77.0326 58.3398 77.7289 57.8403 78.2435 57.2349C 78.4554 56.9927 78.6068 56.7808 78.6976 56.5991C 78.7884 56.3872 78.8793 56.1904 78.9701 56.0088C 79.0912 55.7969 79.2123 55.585 79.3334 55.373C 79.4847 55.1611 79.7118 54.9341 80.0145 54.6919C 80.7108 54.1167 81.2406 53.481 81.6039 52.7847C 81.9974 52.0884 82.285 51.3618 82.4667 50.605C 82.6483 49.8481 82.7543 49.061 82.7845 48.2437C 82.8148 47.4263 82.8299 46.5937 82.8299 45.7461ZM 153.217 63.8193C 153.217 64.2432 153.112 64.5913 152.9 64.8638C 152.688 65.1362 152.415 65.3481 152.082 65.4995C 151.78 65.6509 151.431 65.7417 151.038 65.772C 150.675 65.8325 150.326 65.8628 149.993 65.8628C 149.539 65.8628 149.085 65.8325 148.631 65.772C 148.177 65.7114 147.723 65.6509 147.269 65.5903C 146.663 65.8022 145.937 66.0142 145.089 66.2261C 144.272 66.4683 143.53 66.5894 142.864 66.5894C 142.682 66.5894 142.501 66.5591 142.319 66.4985C 142.168 66.438 142.016 66.4077 141.865 66.4077C 141.35 66.4077 140.821 66.4985 140.276 66.6802C 139.761 66.8921 139.246 66.998 138.732 66.998C 137.854 66.998 137.006 66.877 136.189 66.6348C 135.402 66.4229 134.569 66.2866 133.691 66.2261C 132.268 66.105 131.163 65.5601 130.376 64.5913C 129.619 63.5923 129.211 62.4116 129.15 61.0493C 130.089 60.4741 131.072 60.0806 132.102 59.8687C 133.161 59.6567 134.221 59.5508 135.28 59.5508C 135.886 59.5508 136.476 59.5659 137.051 59.5962C 137.657 59.6265 138.262 59.6719 138.868 59.7324C 138.777 57.4619 138.58 55.1914 138.278 52.9209C 137.975 50.6504 137.823 48.3647 137.823 46.064C 137.823 45.2769 137.839 44.4897 137.869 43.7026C 137.929 42.9155 138.035 42.1284 138.187 41.3413C 138.338 40.5542 138.535 39.7822 138.777 39.0254C 139.019 38.2383 139.14 37.4512 139.14 36.6641C 139.14 36.1494 139.065 35.6802 138.913 35.2563C 138.762 34.8022 138.565 34.3481 138.323 33.894C 138.111 33.5308 137.975 33.1221 137.914 32.668C 137.854 32.2139 137.778 31.7598 137.687 31.3057C 137.596 30.8213 137.46 30.3521 137.279 29.8979C 137.097 29.4438 136.794 29.0352 136.37 28.6719C 135.977 28.3086 135.417 28.021 134.69 27.8091C 133.964 27.5972 133.01 27.4912 131.829 27.4912C 131.466 27.4912 130.921 27.5518 130.195 27.6729C 129.498 27.7637 128.772 27.8999 128.015 28.0815C 127.288 28.2329 126.592 28.4297 125.926 28.6719C 125.29 28.8838 124.851 29.1108 124.609 29.353C 124.458 29.5044 124.261 29.7163 124.019 29.9888C 123.807 30.2612 123.565 30.5488 123.292 30.8516C 123.05 31.124 122.808 31.3813 122.566 31.6235C 122.323 31.8355 122.112 31.9565 121.93 31.9868C 121.476 32.0776 121.128 32.1533 120.885 32.2139C 120.674 32.2744 120.492 32.3652 120.341 32.4863C 120.219 32.6074 120.113 32.7891 120.023 33.0312C 119.932 33.2432 119.78 33.561 119.569 33.9849C 119.508 34.106 119.387 34.3481 119.205 34.7114C 119.024 35.0444 118.842 35.2109 118.66 35.2109C 118.509 35.2109 118.403 35.1504 118.342 35.0293C 118.282 34.9082 118.176 34.8477 118.025 34.8477C 117.964 34.8477 117.873 34.8931 117.752 34.9839C 117.661 35.0444 117.586 35.105 117.525 35.1655L 117.525 36.437C 117.313 36.6792 117.116 36.8154 116.935 36.8457C 116.783 36.8457 116.647 36.8608 116.526 36.8911C 116.435 36.9214 116.36 36.9971 116.299 37.1182C 116.269 37.2393 116.254 37.5269 116.254 37.981C 116.254 38.314 116.178 38.6167 116.027 38.8892C 115.875 39.1616 115.709 39.4341 115.527 39.7065C 115.376 39.979 115.224 40.2666 115.073 40.5693C 114.922 40.8418 114.846 41.1597 114.846 41.5229C 114.846 42.1284 114.922 42.7188 115.073 43.2939C 115.255 43.8389 115.345 44.4141 115.345 45.0195C 115.345 45.4131 115.285 45.7461 115.164 46.0186C 115.043 46.291 114.891 46.5483 114.71 46.7905C 114.558 47.0024 114.422 47.2144 114.301 47.4263C 114.18 47.6382 114.119 47.8955 114.119 48.1982C 114.119 48.6221 114.195 49.0156 114.346 49.3789C 114.528 49.7119 114.71 50.0601 114.891 50.4233C 115.073 50.7866 115.239 51.165 115.391 51.5586C 115.572 51.9521 115.663 52.376 115.663 52.8301C 115.663 53.3447 115.603 53.8745 115.482 54.4194C 115.361 54.9341 115.3 55.4639 115.3 56.0088C 115.3 56.6445 115.391 57.144 115.572 57.5073C 115.784 57.8403 116.042 58.0977 116.344 58.2793C 116.677 58.4609 117.056 58.5972 117.48 58.688C 117.904 58.7788 118.327 58.915 118.751 59.0967C 119.205 59.248 119.659 59.4751 120.113 59.7778C 120.568 60.0503 120.991 60.4741 121.385 61.0493L 121.657 61.0039C 122.172 61.0039 122.551 61.2158 122.793 61.6396C 123.035 62.0635 123.156 62.5024 123.156 62.9565C 123.156 63.3804 123.065 63.7588 122.884 64.0918C 122.702 64.3945 122.611 64.8032 122.611 65.3179C 122.611 65.6812 122.217 65.9839 121.43 66.2261C 120.643 66.4683 119.75 66.6499 118.751 66.771C 117.752 66.9224 116.783 67.0132 115.845 67.0435C 114.937 67.104 114.331 67.1343 114.029 67.1343C 113.665 67.1343 113.105 67.1191 112.348 67.0889C 111.622 67.0889 110.789 67.0586 109.851 66.998C 108.943 66.9678 107.989 66.9072 106.99 66.8164C 105.991 66.7256 105.068 66.5894 104.22 66.4077C 103.372 66.2563 102.646 66.0444 102.04 65.772C 101.465 65.5298 101.102 65.2271 100.95 64.8638C 100.799 64.5005 100.648 64.1069 100.496 63.6831C 100.345 63.229 100.269 62.79 100.269 62.3662C 100.269 61.9121 100.375 61.5034 100.587 61.1401C 100.829 60.7769 101.117 60.4438 101.45 60.1411C 101.904 59.7173 102.404 59.4751 102.948 59.4146C 103.493 59.3237 104.023 59.2783 104.538 59.2783C 105.083 59.248 105.597 59.2026 106.082 59.1421C 106.596 59.0513 107.035 58.8091 107.399 58.4155C 107.792 58.022 108.095 57.4014 108.307 56.5537C 108.549 55.7061 108.67 54.5103 108.67 52.9663C 108.67 52.5728 108.64 52.1792 108.579 51.7856C 108.519 51.3618 108.443 50.9683 108.352 50.605C 108.261 50.2114 108.186 49.8633 108.125 49.5605C 108.065 49.2578 108.034 49.0308 108.034 48.8794C 108.034 48.6978 108.08 48.501 108.171 48.2891C 108.292 48.0771 108.413 47.8652 108.534 47.6533C 108.685 47.4111 108.806 47.1538 108.897 46.8813C 109.018 46.6089 109.079 46.3062 109.079 45.9731C 109.079 45.4585 108.973 44.959 108.761 44.4746C 108.579 43.9902 108.488 43.4907 108.488 42.9761C 108.488 42.5522 108.564 42.1436 108.716 41.75C 108.867 41.3564 108.943 40.9478 108.943 40.5239C 108.943 40.1909 108.852 39.873 108.67 39.5703C 108.488 39.2676 108.398 38.9346 108.398 38.5713C 108.398 38.2383 108.458 37.9053 108.579 37.5723C 108.7 37.209 108.761 36.8457 108.761 36.4824C 108.761 35.6953 108.67 34.8931 108.488 34.0757C 108.307 33.228 108.14 32.4106 107.989 31.6235C 107.807 30.6851 107.459 29.9888 106.945 29.5347C 106.46 29.0503 105.9 28.687 105.264 28.4448C 104.629 28.2026 103.963 28.0059 103.266 27.8545C 102.57 27.7031 101.934 27.4761 101.359 27.1733C 100.784 26.8403 100.3 26.3862 99.906 25.811C 99.5427 25.2056 99.3611 24.3276 99.3611 23.1772C 99.3611 22.3901 99.5881 21.7847 100.042 21.3608C 100.527 20.937 101.102 20.6343 101.768 20.4526C 102.434 20.2407 103.13 20.1196 103.857 20.0894C 104.613 20.0591 105.264 20.0439 105.809 20.0439C 106.687 20.0439 107.55 20.1802 108.398 20.4526C 109.276 20.6948 110.154 20.8462 111.031 20.9067C 111.425 20.937 111.803 21.0732 112.167 21.3154C 112.53 21.5273 112.863 21.7998 113.166 22.1328C 113.468 22.4355 113.711 22.7837 113.892 23.1772C 114.074 23.5708 114.18 23.9644 114.21 24.3579C 114.21 24.5396 114.271 24.8726 114.392 25.3569C 114.513 25.811 114.649 26.2803 114.801 26.7646C 114.982 27.249 115.164 27.688 115.345 28.0815C 115.557 28.4448 115.769 28.6265 115.981 28.6265C 116.163 28.4751 116.284 28.3086 116.344 28.127C 116.435 27.915 116.511 27.7183 116.572 27.5366C 116.602 27.355 116.799 27.1128 117.162 26.8101C 117.555 26.5073 117.979 26.1895 118.433 25.8564C 118.918 25.5234 119.372 25.2056 119.796 24.9028C 120.25 24.6001 120.568 24.3579 120.749 24.1763C 120.931 23.9644 121.067 23.7524 121.158 23.5405C 121.279 23.2983 121.385 23.0864 121.476 22.9048C 121.597 22.6929 121.733 22.5264 121.884 22.4053C 122.066 22.2842 122.339 22.2236 122.702 22.2236L 122.929 22.2236C 123.262 22.2236 123.58 22.0874 123.883 21.8149C 124.185 21.5122 124.579 21.1792 125.063 20.8159C 125.548 20.4526 126.183 20.1348 126.97 19.8623C 127.758 19.5596 128.802 19.4082 130.104 19.4082C 131.224 19.4082 132.344 19.4385 133.464 19.499C 134.584 19.5293 135.644 19.6807 136.643 19.9531C 137.672 20.2256 138.626 20.6494 139.504 21.2246C 140.412 21.7998 141.199 22.602 141.865 23.6313C 142.38 24.4487 142.803 25.0542 143.136 25.4478C 143.469 25.8413 143.742 26.2197 143.954 26.583C 144.166 26.9463 144.302 27.3853 144.363 27.8999C 144.453 28.4145 144.499 29.1865 144.499 30.2158C 144.499 30.6396 144.574 31.0332 144.726 31.3965C 144.877 31.7598 145.044 32.1382 145.225 32.5317C 145.437 32.895 145.619 33.2886 145.77 33.7124C 145.922 34.1362 145.997 34.6206 145.997 35.1655C 145.997 36.2251 145.937 37.2847 145.816 38.3442C 145.695 39.3735 145.634 40.418 145.634 41.4775C 145.634 42.2344 145.483 42.9761 145.18 43.7026C 144.907 44.4292 144.771 45.1709 144.771 45.9277C 144.771 46.291 144.862 46.6392 145.044 46.9722C 145.225 47.3052 145.316 47.6836 145.316 48.1074C 145.316 48.6221 145.256 49.1519 145.134 49.6968C 145.013 50.2114 144.953 50.7261 144.953 51.2407C 144.953 51.7251 145.059 52.1489 145.271 52.5122C 145.513 52.8755 145.634 53.2842 145.634 53.7383C 145.634 53.9805 145.573 54.1772 145.452 54.3286C 145.362 54.48 145.24 54.6313 145.089 54.7827C 144.968 54.9341 144.847 55.1006 144.726 55.2822C 144.635 55.4336 144.59 55.6304 144.59 55.8726C 144.59 56.3267 144.696 56.7959 144.907 57.2803C 145.15 57.7344 145.452 58.1582 145.816 58.5518C 146.179 58.915 146.588 59.2178 147.042 59.46C 147.496 59.6719 147.95 59.7778 148.404 59.7778C 148.798 59.7778 149.131 59.7021 149.403 59.5508C 149.706 59.3691 150.024 59.2783 150.357 59.2783C 150.78 59.2783 151.159 59.46 151.492 59.8232C 151.855 60.1563 152.158 60.5649 152.4 61.0493C 152.673 61.5337 152.869 62.0332 152.99 62.5479C 153.142 63.0625 153.217 63.4863 153.217 63.8193ZM 143.409 46.6997C 143.409 46.397 143.303 46.1094 143.091 45.8369C 142.909 45.5342 142.652 45.3828 142.319 45.3828C 141.986 45.3828 141.759 45.5493 141.638 45.8823C 141.517 46.1851 141.456 46.4727 141.456 46.7451C 141.456 47.0781 141.517 47.396 141.638 47.6987C 141.759 48.0015 142.001 48.1528 142.364 48.1528C 142.667 48.1528 142.894 48.062 143.046 47.8804C 143.227 47.6685 143.348 47.3052 143.409 46.7905L 143.409 46.6997ZM 144.181 55.4185C 144.181 55.2065 144.09 55.04 143.908 54.9189C 143.757 54.7676 143.591 54.6465 143.409 54.5557C 143.348 54.7373 143.242 54.9189 143.091 55.1006C 142.94 55.2822 142.788 55.479 142.637 55.6909C 142.486 55.9028 142.334 56.1147 142.183 56.3267C 142.062 56.5386 142.001 56.7505 142.001 56.9624C 142.001 57.2046 142.077 57.3862 142.228 57.5073C 142.38 57.6284 142.561 57.7344 142.773 57.8252C 142.803 57.6436 142.894 57.4619 143.046 57.2803C 143.227 57.0986 143.394 56.9019 143.545 56.6899C 143.697 56.478 143.833 56.2812 143.954 56.0996C 144.105 55.8877 144.181 55.6606 144.181 55.4185ZM 113.983 45.6553C 113.983 45.4434 113.938 45.186 113.847 44.8833C 113.786 44.5806 113.68 44.293 113.529 44.0205C 113.408 43.7178 113.241 43.4756 113.03 43.2939C 112.848 43.082 112.621 42.9761 112.348 42.9761C 112.015 42.9761 111.728 43.082 111.486 43.2939C 111.243 43.4756 110.941 43.5664 110.577 43.5664L 110.396 43.5664C 110.305 43.8994 110.259 44.2173 110.259 44.52L 110.305 44.7925L 110.35 44.6562C 110.441 44.9893 110.623 45.2466 110.895 45.4282C 111.168 45.6099 111.455 45.7764 111.758 45.9277C 112.091 46.0488 112.424 46.1699 112.757 46.291C 113.09 46.4121 113.378 46.5786 113.62 46.7905C 113.862 46.5181 113.983 46.1396 113.983 45.6553ZM 198.312 71.1758C 198.312 70.2979 198.085 69.6167 197.63 69.1323C 197.176 68.6479 196.601 68.2695 195.905 67.9971C 195.239 67.7246 194.512 67.5127 193.725 67.3613C 192.968 67.2402 192.272 67.0889 191.636 66.9072L 191.591 66.8618C 189.926 66.3774 188.261 65.9385 186.596 65.5449C 184.931 65.1816 183.235 65 181.51 65C 181.449 65 181.343 64.9849 181.192 64.9546C 181.041 64.894 180.708 64.6973 180.193 64.3643C 179.951 64.3643 179.739 64.4248 179.557 64.5459C 179.376 64.667 179.194 64.8032 179.012 64.9546C 178.861 65.106 178.694 65.2422 178.513 65.3633C 178.331 65.4844 178.134 65.5449 177.922 65.5449C 177.589 65.5449 177.272 65.4692 176.969 65.3179C 176.666 65.1968 176.348 65.1362 176.015 65.1362C 175.349 65.1362 174.698 65.2271 174.063 65.4087C 173.427 65.6206 172.791 65.8325 172.155 66.0444C 171.55 66.2866 170.929 66.4985 170.294 66.6802C 169.658 66.8921 169.007 66.998 168.341 66.998C 167.947 66.998 167.478 67.1797 166.933 67.543C 166.419 67.9062 165.919 68.3452 165.435 68.8599C 164.95 69.3745 164.542 69.9043 164.209 70.4492C 163.876 71.0244 163.709 71.5088 163.709 71.9023C 163.709 72.8408 163.83 73.7036 164.072 74.4907C 164.345 75.2778 164.738 75.959 165.253 76.5342C 165.768 77.1094 166.388 77.5635 167.115 77.8965C 167.872 78.2295 168.75 78.396 169.749 78.396C 170.082 78.396 170.384 78.4111 170.657 78.4414C 170.96 78.502 171.277 78.6533 171.61 78.8955C 172.67 79.7129 173.836 80.1821 175.107 80.3032C 176.409 80.4546 177.695 80.5303 178.967 80.5303C 179.754 80.5303 180.496 80.3638 181.192 80.0308C 181.919 79.6978 182.66 79.4404 183.417 79.2588C 184.174 79.1074 184.931 79.0317 185.688 79.0317C 186.475 79.062 187.232 78.9106 187.958 78.5776C 188.473 78.3354 188.881 78.0933 189.184 77.8511C 189.517 77.6392 189.986 77.5332 190.592 77.5332C 191.107 77.5332 191.591 77.5786 192.045 77.6694C 192.529 77.7603 193.029 77.8057 193.544 77.8057C 194.058 77.8057 194.527 77.6846 194.951 77.4424C 195.405 77.2305 195.784 76.9277 196.087 76.5342C 196.389 76.1709 196.616 75.7471 196.768 75.2627C 196.949 74.8086 197.04 74.3394 197.04 73.855L 196.995 73.4009C 197.57 73.4009 197.933 73.1436 198.085 72.6289C 198.236 72.1143 198.312 71.6299 198.312 71.1758ZM 205.577 72.6743C 205.577 73.6431 205.244 74.6572 204.578 75.7168C 203.942 76.8066 203.17 77.8057 202.262 78.7139C 201.384 79.6221 200.506 80.3638 199.628 80.939C 198.751 81.5444 198.085 81.8472 197.63 81.8472C 196.843 81.8472 196.071 81.9531 195.315 82.165C 194.588 82.4072 193.877 82.6948 193.18 83.0278C 192.514 83.3608 191.515 83.6938 190.183 84.0269C 188.881 84.3599 187.489 84.6475 186.005 84.8896C 184.522 85.1621 183.099 85.374 181.737 85.5254C 180.375 85.707 179.315 85.7979 178.558 85.7979C 177.68 85.7979 176.742 85.7676 175.743 85.707C 174.774 85.6465 173.79 85.5405 172.791 85.3892C 171.792 85.2681 170.808 85.0864 169.839 84.8442C 168.901 84.6323 168.023 84.3599 167.206 84.0269C 166.782 83.8452 166.434 83.6636 166.161 83.4819C 165.919 83.3003 165.677 83.1338 165.435 82.9824C 165.192 82.8311 164.92 82.71 164.617 82.6191C 164.315 82.5283 163.891 82.4829 163.346 82.4829C 162.71 82.4829 162.195 82.3618 161.802 82.1196C 161.408 81.9077 161.075 81.6201 160.803 81.2568C 160.561 80.8936 160.318 80.4849 160.076 80.0308C 159.864 79.6069 159.607 79.1831 159.304 78.7593C 158.638 77.8813 158.139 77.0337 157.806 76.2163C 157.473 75.4292 157.306 74.4756 157.306 73.3555C 157.306 71.8115 157.624 70.313 158.26 68.8599C 158.896 67.437 159.728 66.1504 160.757 65C 160.757 64.0918 160.636 63.1987 160.394 62.3208C 160.182 61.4429 159.94 60.5649 159.668 59.687C 159.425 58.8091 159.183 57.9312 158.941 57.0532C 158.729 56.1753 158.623 55.2822 158.623 54.374C 158.623 53.7686 158.699 53.2842 158.85 52.9209C 159.032 52.5273 159.213 52.2095 159.395 51.9673C 159.577 51.6948 159.743 51.4526 159.895 51.2407C 160.076 50.9985 160.167 50.7261 160.167 50.4233C 160.167 50.3325 160.379 50.0752 160.803 49.6514C 161.257 49.2275 161.741 48.7432 162.256 48.1982C 162.801 47.6533 163.285 47.0781 163.709 46.4727C 164.163 45.8672 164.39 45.3374 164.39 44.8833C 164.39 44.4897 164.224 44.1265 163.891 43.7935C 163.588 43.4302 163.255 43.082 162.892 42.749C 162.528 42.3857 162.18 42.0225 161.847 41.6592C 161.545 41.2656 161.393 40.8418 161.393 40.3877C 161.393 39.7217 161.439 39.0557 161.529 38.3896C 161.65 37.6934 161.772 37.0273 161.893 36.3916C 162.044 35.7256 162.165 35.0596 162.256 34.3936C 162.377 33.7275 162.438 33.0464 162.438 32.3501C 162.438 32.1987 162.407 32.0776 162.347 31.9868C 162.286 31.8657 162.256 31.7295 162.256 31.5781C 162.256 31.2451 162.332 30.9575 162.483 30.7153C 162.665 30.4429 162.861 30.2158 163.073 30.0342C 163.285 29.8223 163.467 29.6255 163.618 29.4438C 163.8 29.2622 163.891 29.0806 163.891 28.8989C 163.891 28.6567 163.8 28.4297 163.618 28.2178C 163.437 27.9756 163.346 27.6426 163.346 27.2188L 163.346 27.0371L 163.346 26.8101C 163.83 26.4771 164.224 26.0835 164.526 25.6294C 164.859 25.1753 165.238 24.7666 165.662 24.4033C 166.267 23.8887 166.979 23.3892 167.796 22.9048C 168.644 22.3901 169.416 21.9512 170.112 21.5879C 170.354 21.6182 170.521 21.7393 170.611 21.9512C 170.702 22.1631 170.869 22.269 171.111 22.269C 171.293 22.269 171.58 22.1782 171.974 21.9966C 172.367 21.7847 172.821 21.5576 173.336 21.3154C 173.881 21.043 174.441 20.8159 175.016 20.6343C 175.622 20.4224 176.212 20.3164 176.787 20.3164C 177.272 20.3164 177.756 20.3618 178.24 20.4526C 178.725 20.5132 179.209 20.5737 179.693 20.6343C 180.662 20.7554 181.525 20.8311 182.282 20.8613C 183.039 20.8916 183.735 20.9976 184.371 21.1792C 185.037 21.3608 185.642 21.6787 186.187 22.1328C 186.762 22.5869 187.353 23.2832 187.958 24.2217C 188.261 23.9492 188.609 23.707 189.003 23.4951C 189.396 23.2832 189.774 23.0713 190.138 22.8594C 190.501 22.6172 190.834 22.3599 191.137 22.0874C 191.44 21.7847 191.667 21.4214 191.818 20.9976C 192.121 21.1489 192.423 21.2246 192.726 21.2246C 192.968 21.2246 193.226 21.1338 193.498 20.9521C 193.771 20.7705 194.088 20.5889 194.452 20.4072C 194.815 20.1953 195.239 19.9985 195.723 19.8169C 196.208 19.6353 196.783 19.5444 197.449 19.5444C 198.478 19.5444 199.477 19.6504 200.446 19.8623C 201.445 20.0742 202.459 20.2256 203.488 20.3164C 203.549 21.0127 203.685 21.6787 203.897 22.3145C 204.109 22.9199 204.336 23.5405 204.578 24.1763C 204.82 24.812 205.032 25.4478 205.214 26.0835C 205.426 26.7192 205.532 27.3701 205.532 28.0361C 205.532 28.4902 205.29 29.0049 204.805 29.5801C 204.351 30.1553 203.776 30.7002 203.08 31.2148C 202.414 31.6992 201.687 32.1079 200.9 32.4409C 200.143 32.7739 199.462 32.9404 198.857 32.9404C 198.766 32.9404 198.66 32.9102 198.539 32.8496C 198.448 32.7891 198.402 32.6982 198.402 32.5771C 198.402 32.2744 198.493 32.0171 198.675 31.8052C 198.887 31.5933 198.993 31.3359 198.993 31.0332C 198.599 30.8213 198.357 30.7002 198.266 30.6699C 198.206 30.6396 198.16 30.6245 198.13 30.6245C 197.615 30.6245 197.207 30.7607 196.904 31.0332C 196.601 31.2754 196.374 31.6235 196.223 32.0776C 196.071 32.5015 195.965 32.9858 195.905 33.5308C 195.844 34.0454 195.814 34.5752 195.814 35.1201C 195.814 35.7256 195.829 36.3008 195.859 36.8457C 195.89 37.3604 195.905 37.7993 195.905 38.1626C 195.905 38.9194 195.859 39.6006 195.769 40.2061C 195.678 40.7813 195.345 41.3413 194.77 41.8862C 194.225 42.4009 193.801 42.9761 193.498 43.6118C 193.195 44.2173 192.893 44.853 192.59 45.519C 192.287 46.1851 191.939 46.8511 191.545 47.5171C 191.182 48.1831 190.652 48.7886 189.956 49.3335C 189.593 49.6968 189.29 49.9692 189.048 50.1509C 188.836 50.3325 188.67 50.4688 188.548 50.5596C 188.458 50.6504 188.382 50.7109 188.321 50.7412C 188.291 50.7412 188.261 50.7412 188.231 50.7412C 187.413 50.7412 186.626 50.8623 185.869 51.1045C 185.112 51.3164 184.356 51.5586 183.599 51.8311C 182.842 52.0732 182.085 52.3154 181.328 52.5576C 180.571 52.7695 179.784 52.8755 178.967 52.8755C 177.726 52.8755 176.5 52.7393 175.289 52.4668C 174.108 52.1641 172.882 52.0127 171.61 52.0127C 171.005 52.0127 170.324 52.1338 169.567 52.376C 168.81 52.6182 168.099 52.9663 167.433 53.4204C 166.797 53.8442 166.252 54.3589 165.798 54.9644C 165.344 55.5396 165.117 56.1753 165.117 56.8716C 165.117 57.2954 165.208 57.7344 165.389 58.1885C 165.571 58.6426 165.813 59.0513 166.116 59.4146C 166.419 59.7778 166.767 60.0806 167.16 60.3228C 167.584 60.5347 168.023 60.6406 168.477 60.6406C 168.992 60.6406 169.461 60.5195 169.885 60.2773C 170.339 60.0352 170.823 59.9141 171.338 59.9141C 171.701 59.9141 171.989 60.02 172.201 60.2319C 172.443 60.4136 172.7 60.5195 172.973 60.5498C 172.973 60.3682 173.033 60.2017 173.154 60.0503C 173.306 59.8989 173.487 59.8232 173.699 59.8232C 173.881 59.8232 174.063 59.9292 174.244 60.1411C 174.426 60.353 174.638 60.4893 174.88 60.5498C 175.031 60.3076 175.243 60.1411 175.516 60.0503C 175.788 59.9292 176.061 59.8687 176.333 59.8687C 176.696 59.8687 177.029 59.9292 177.332 60.0503C 177.665 60.1714 177.983 60.3228 178.286 60.5044C 178.588 60.6558 178.876 60.792 179.149 60.9131C 179.421 61.0342 179.693 61.0947 179.966 61.0947C 180.208 61.0947 180.42 61.0342 180.602 60.9131C 180.783 60.7617 180.98 60.5952 181.192 60.4136C 181.404 60.2319 181.646 60.0806 181.919 59.9595C 182.191 59.8081 182.539 59.7324 182.963 59.7324C 183.296 59.7324 183.599 59.7627 183.871 59.8232C 184.174 59.8535 184.492 59.8687 184.825 59.8687C 185.279 59.8687 185.703 59.7627 186.096 59.5508C 186.52 59.3086 186.959 59.1875 187.413 59.1875C 187.655 59.1875 187.882 59.248 188.094 59.3691C 188.337 59.4902 188.624 59.6265 188.957 59.7778C 189.29 59.9292 189.684 60.0654 190.138 60.1865C 190.622 60.3076 191.212 60.3682 191.909 60.3682C 192.393 60.3682 192.878 60.4438 193.362 60.5952C 193.846 60.7466 194.316 60.9282 194.77 61.1401C 195.224 61.3521 195.678 61.564 196.132 61.7759C 196.616 61.9878 197.086 62.1543 197.54 62.2754C 198.085 62.4268 198.493 62.5781 198.766 62.7295C 199.038 62.8809 199.25 63.0474 199.401 63.229C 199.583 63.4106 199.765 63.6226 199.946 63.8647C 200.128 64.1069 200.416 64.3794 200.809 64.6821C 201.233 65.0454 201.657 65.3179 202.081 65.4995C 202.504 65.7114 202.898 65.9233 203.261 66.1353C 203.625 66.3472 203.927 66.6196 204.17 66.9526C 204.442 67.2856 204.654 67.7852 204.805 68.4512C 204.957 69.1475 205.123 69.8437 205.305 70.54C 205.486 71.2363 205.577 71.9478 205.577 72.6743ZM 193.816 27.1279C 193.816 26.6436 193.559 26.25 193.044 25.9473C 192.529 25.6445 192.06 25.4932 191.636 25.4932C 191.394 25.4932 191.167 25.5537 190.955 25.6748C 190.743 25.7656 190.607 25.9321 190.546 26.1743C 190.789 26.2349 191.001 26.3408 191.182 26.4922C 191.364 26.6436 191.53 26.8101 191.682 26.9917C 191.863 27.1431 192.045 27.2793 192.227 27.4004C 192.439 27.5215 192.681 27.582 192.953 27.582C 193.226 27.582 193.498 27.5366 193.771 27.4458L 193.816 27.1279ZM 189.275 36.6641C 189.275 35.998 189.154 35.2412 188.912 34.3936C 188.7 33.5459 188.382 32.7437 187.958 31.9868C 187.534 31.1997 187.035 30.5034 186.46 29.8979C 185.884 29.2925 185.264 28.8838 184.598 28.6719L 179.33 26.8101C 179.058 26.8101 178.846 26.8403 178.694 26.9009C 178.543 26.9614 178.392 27.0371 178.24 27.1279C 178.089 27.1885 177.938 27.249 177.786 27.3096C 177.635 27.3701 177.423 27.4004 177.15 27.4004C 176.757 27.4004 176.394 27.3247 176.061 27.1733C 175.728 27.022 175.379 26.9463 175.016 26.9463C 174.683 26.9463 174.411 27.0522 174.199 27.2642C 173.987 27.4761 173.775 27.688 173.563 27.8999C 173.351 28.1118 173.154 28.2632 172.973 28.354C 172.821 28.4448 172.655 28.5205 172.473 28.5811C 172.322 28.6416 172.155 28.7173 171.974 28.8081C 171.822 28.8687 171.656 28.9595 171.474 29.0806C 171.232 29.2319 170.944 29.6709 170.611 30.3975C 170.278 31.124 169.961 31.9111 169.658 32.7588C 169.355 33.6064 169.098 34.4238 168.886 35.2109C 168.674 35.998 168.568 36.5278 168.568 36.8003C 168.568 36.9214 168.659 37.1938 168.84 37.6177C 169.022 38.0112 169.249 38.4956 169.522 39.0708C 169.824 39.646 170.142 40.2515 170.475 40.8872C 170.838 41.5229 171.171 42.1284 171.474 42.7036C 171.807 43.2788 172.095 43.7935 172.337 44.2476C 172.609 44.6714 172.806 44.9438 172.927 45.0649C 173.321 45.5796 173.745 45.9277 174.199 46.1094C 174.683 46.2607 175.183 46.3364 175.697 46.3364C 176.121 46.3364 176.56 46.3062 177.014 46.2456C 177.499 46.1851 177.968 46.1548 178.422 46.1548C 178.785 46.1548 179.133 46.2002 179.466 46.291C 179.799 46.3516 180.148 46.3818 180.511 46.3818C 181.51 46.3818 182.524 46.0488 183.553 45.3828C 184.583 44.7168 185.521 43.8994 186.369 42.9307C 187.216 41.9619 187.913 40.9175 188.458 39.7974C 189.003 38.647 189.275 37.6025 189.275 36.6641Z"/>
<path id="path2_fill" d="M 153 81.8236C 153 82.5694 152.744 83.3684 152.233 84.2208C 151.823 85.0731 151.619 85.7656 151.619 86.2983C 151.619 87.0441 151.823 87.8964 152.233 88.8553C 152.642 89.7076 152.847 90.6132 152.847 91.5721C 152.847 93.7029 152.488 95.7805 151.772 97.8047C 151.158 99.7225 150.391 101.693 149.47 103.718C 148.652 105.636 147.885 107.607 147.169 109.631C 146.452 111.655 146.094 113.786 146.094 116.023C 146.094 116.876 146.043 117.568 145.941 118.101C 145.941 118.527 145.787 118.953 145.48 119.379C 145.276 119.805 144.918 120.285 144.406 120.818C 143.895 121.35 143.127 122.096 142.104 123.055C 140.979 124.12 140.109 125.026 139.495 125.772C 138.984 126.411 138.575 126.944 138.268 127.37C 137.961 127.796 137.756 128.169 137.654 128.489C 137.552 128.702 137.449 128.968 137.347 129.288L 137.501 129.288C 136.682 130.992 135.608 132.484 134.278 133.762C 133.05 135.041 132.078 136.586 131.362 138.397L 129.827 141.114C 128.907 141.966 127.679 142.765 126.144 143.511C 124.712 144.15 123.28 144.736 121.848 145.269C 120.415 145.802 119.085 146.334 117.858 146.867C 116.732 147.293 116.016 147.773 115.709 148.305C 114.481 149.477 113.458 150.383 112.64 151.022C 111.821 151.555 111.054 151.981 110.338 152.301C 109.724 152.62 109.059 152.833 108.343 152.94C 107.729 153.046 106.962 153.206 106.041 153.419L 103.125 154.058L 103.432 154.058C 101.079 154.911 99.4423 155.657 98.5216 156.296C 97.3962 157.042 96.4243 157.574 95.6058 157.894C 94.8897 158.107 93.9689 158.32 92.8435 158.533C 91.8205 158.64 90.4905 158.8 88.8536 159.013C 87.319 159.119 85.1705 159.386 82.4082 159.812L 80.8736 160.291C 80.3621 160.504 79.7994 160.717 79.1856 160.93C 78.5717 161.037 77.8556 161.09 77.0371 161.09C 73.4564 161.09 70.2337 160.664 67.3691 159.812C 64.5045 158.959 61.5376 158.533 58.4684 158.533C 50.7954 155.23 43.4804 151.555 36.5236 147.506C 29.669 143.351 22.7633 138.717 15.8064 133.603C 15.2949 132.537 14.988 131.685 14.8857 131.046C 14.8857 130.406 14.8857 129.714 14.8857 128.968C 14.3741 126.837 13.5045 125.133 12.2768 123.854C 11.1515 122.576 9.97492 121.297 8.74724 120.019C 7.51956 118.74 6.39418 117.249 5.37111 115.544C 4.45035 113.839 3.98997 111.549 3.98997 108.672C 3.98997 107.287 4.29689 106.115 4.91073 105.156C 5.52457 104.091 5.83149 103.025 5.83149 101.96C 5.11535 101.108 4.29689 99.7758 3.37613 97.9646C 2.45537 96.0468 1.99498 93.3833 1.99498 89.974C 1.99498 88.6955 2.35306 87.2572 3.06921 85.6591C 3.78536 84.0609 4.14343 82.3563 4.14343 80.5451C 4.14343 80.2255 3.93882 79.9058 3.52959 79.5862C 3.12036 79.1601 2.60883 78.6806 1.99498 78.1479C 1.48345 77.6152 1.02307 76.9227 0.613842 76.0704C 0.204614 75.1115 0 73.9928 0 72.7143C 0 72.1816 0.102307 71.3293 0.306921 70.1573C 0.511535 68.9854 0.767302 67.7069 1.07422 66.3218C 1.48345 64.8303 1.84152 63.2854 2.14845 61.6873C 2.55767 59.9826 2.91575 58.3313 3.22267 56.7331L 3.22267 56.893C 3.7342 54.5491 4.14343 52.5248 4.45035 50.8201C 4.85958 49.0089 5.06419 47.9968 5.06419 47.7837L 7.82648 45.0669L 7.51956 45.2267C 8.23571 44.2678 8.64493 43.4688 8.74724 42.8295C 8.95185 42.0837 9.05416 41.338 9.05416 40.5922C 9.05416 39.8464 9.10532 39.1006 9.20762 38.3548C 9.41224 37.609 9.92377 36.6501 10.7422 35.4782C 11.0491 35.1586 11.4584 34.7857 11.9699 34.3595C 12.5838 33.9333 13.1976 33.5605 13.8114 33.2408C 14.4253 32.8147 14.9368 32.3885 15.346 31.9623C 15.8576 31.5362 16.2156 31.0567 16.4203 30.524L 16.2668 30.6838C 17.0853 28.0203 18.6199 25.6231 20.8706 23.4923C 23.1214 21.255 25.7302 19.2839 28.6971 17.5793C 31.664 15.7681 34.7844 14.17 38.0582 12.7849C 41.332 11.3999 44.3501 10.1214 47.1123 8.94945L 51.1023 7.35134C 53.9669 6.17938 57.0361 4.68782 60.3099 2.87661C 63.5837 1.0654 67.1133 0.106535 70.8987 0C 72.331 0 74.0702 0.0532771 76.1163 0.159812C 78.1625 0.159812 80.2086 0.266346 82.2548 0.479435C 84.3009 0.692524 86.2447 0.95887 88.0863 1.27849C 89.9278 1.59812 91.3089 1.97102 92.2297 2.39718L 92.0762 2.39718L 93.7643 3.19623C 94.7874 3.94201 96.1685 4.26164 97.9077 4.1551C 99.6469 4.04857 100.926 4.10183 101.744 4.31492L 104.353 5.91303C 107.013 7.51115 109.52 9.10927 111.873 10.7074C 114.328 12.199 116.528 13.8503 118.471 15.6615C 118.983 16.1943 119.904 16.6737 121.234 17.0999C 122.666 17.4195 124.098 17.7391 125.531 18.0587C 127.065 18.3783 128.446 18.7512 129.674 19.1774C 131.004 19.6036 131.822 20.1895 132.129 20.9353L 132.129 20.7755L 133.357 22.8531L 133.204 22.6933C 134.124 24.0783 134.892 25.5166 135.506 27.0082C 136.222 28.3932 136.682 29.9381 136.887 31.6427L 138.114 32.7614C 139.854 34.8922 141.388 37.1296 142.718 39.4735C 144.15 41.8174 144.867 44.4809 144.867 47.4641C 144.867 48.7426 144.969 49.7547 145.174 50.5005C 145.48 51.1397 145.787 51.7257 146.094 52.2584C 146.504 52.6846 146.913 53.2173 147.322 53.8565C 147.834 54.3892 148.294 55.135 148.703 56.0939L 148.703 55.9341C 149.317 57.2126 149.88 59.0238 150.391 61.3677C 150.903 63.7116 151.312 66.2153 151.619 68.8788C 152.028 71.4358 152.335 73.9395 152.54 76.39C 152.847 78.7339 153 80.5451 153 81.8236ZM 131.209 87.5768C 131.209 85.446 131.055 83.3152 130.748 81.1843C 130.544 79.0535 130.441 76.7096 130.441 74.1526C 130.441 73.3003 130.544 72.5545 130.748 71.9153C 131.055 71.276 131.209 70.7433 131.209 70.3171C 131.209 69.0386 130.953 67.8134 130.441 66.6415C 130.032 65.363 129.521 64.0845 128.907 62.806C 128.293 61.5275 127.73 60.249 127.219 58.9705C 126.809 57.5855 126.605 56.1472 126.605 54.6556C 126.605 54.2294 126.554 53.5902 126.451 52.7379C 126.349 51.8855 126.144 51.0332 125.838 50.1809C 125.531 49.222 125.019 48.3164 124.303 47.4641C 123.689 46.6117 122.871 45.866 121.848 45.2267L 122.001 45.2267L 120.313 44.2678C 119.597 43.7351 118.983 43.0959 118.471 42.3501C 118.062 41.4978 117.602 40.6454 117.09 39.7931C 115.965 38.0884 114.123 36.1707 111.566 34.0399C 109.008 31.8025 106.041 29.725 102.665 27.8072C 99.3912 25.783 95.9639 24.0783 92.3831 22.6933C 88.9047 21.3082 85.682 20.6157 82.7151 20.6157C 80.3621 20.6157 77.3952 20.7222 73.8144 20.9353C 70.2337 21.1484 66.653 21.5213 63.0722 22.054C 59.5938 22.4802 56.4734 23.1194 53.7111 23.9718C 50.9488 24.7175 49.2608 25.6231 48.6469 26.6886L 48.0331 28.1269C 46.6008 29.9381 44.8616 31.4296 42.8154 32.6016C 40.8716 33.667 39.5416 34.6791 38.8255 35.638L 39.2859 35.3184L 38.5186 36.2773C 37.4955 37.4492 36.5747 38.5146 35.7563 39.4735C 34.9378 40.4324 34.0682 41.338 33.1474 42.1903C 32.329 42.9361 31.4082 43.6819 30.3852 44.4276C 29.3621 45.1734 28.0832 45.9725 26.5486 46.8248C 26.5486 47.3575 26.7021 48.2099 27.009 49.3818C 27.4183 50.4472 27.6229 51.193 27.6229 51.6192C 27.6229 53.6435 27.2648 55.5612 26.5486 57.3724C 25.9348 59.1836 25.2187 60.9948 24.4002 62.806C 23.6841 64.5107 23.0191 66.2686 22.4052 68.0798C 21.7914 69.7844 21.4845 71.5956 21.4845 73.5134C 21.4845 74.5788 21.6891 75.4844 22.0983 76.2302C 22.5075 76.976 22.7121 78.2545 22.7121 80.0657C 21.8937 80.7049 21.0752 81.4507 20.2568 82.303C 19.4383 83.1553 19.0291 84.0077 19.0291 84.86C 19.0291 85.2862 19.5918 85.9787 20.7172 86.9376L 22.7121 88.0562C 22.7121 89.3347 22.661 90.3469 22.5587 91.0927C 22.4564 91.7319 22.4052 92.2113 22.4052 92.531C 22.4052 93.5964 22.661 94.7151 23.1725 95.887C 23.6841 97.059 23.9398 98.0178 23.9398 98.7636C 23.9398 99.7225 23.7352 100.681 23.326 101.64L 23.4794 101.48C 23.3771 101.8 23.2748 102.279 23.1725 102.919C 23.0702 103.451 23.0191 103.665 23.0191 103.558C 23.1214 103.984 23.326 104.41 23.6329 104.836C 24.0421 105.156 24.4514 105.529 24.8606 105.955C 25.3721 106.275 25.7813 106.541 26.0883 106.754C 26.3952 106.967 26.5486 107.127 26.5486 107.234C 27.8786 108.406 29.004 109.897 29.9248 111.708C 30.9478 113.413 31.9198 115.171 32.8405 116.982C 33.659 119.006 34.9378 120.977 36.677 122.895C 38.5186 124.813 40.6158 126.624 42.9689 128.329C 45.322 130.033 47.8796 131.632 50.6419 133.123C 53.5065 134.508 56.4223 135.68 59.3892 136.639L 59.0822 136.479L 61.2307 136.959C 63.5837 137.704 65.0672 138.397 65.681 139.036C 66.3972 139.569 66.9599 140.048 67.3691 140.474C 67.8806 140.901 68.5456 141.22 69.3641 141.433C 70.2849 141.646 72.1264 141.753 74.8887 141.753C 78.2648 141.753 81.0271 141.54 83.1755 141.114C 85.324 140.688 87.3701 140.155 89.3139 139.516C 91.2578 138.77 93.2528 137.917 95.2989 136.959C 97.345 135.893 99.9027 134.775 102.972 133.603L 102.818 133.762L 108.65 131.365L 108.496 131.365C 109.724 130.619 111.105 129.394 112.64 127.69C 114.277 125.878 115.863 123.961 117.397 121.936C 119.034 119.912 120.518 117.941 121.848 116.023C 123.178 113.999 124.098 112.348 124.61 111.069L 124.61 111.229C 126.349 106.222 127.884 102.013 129.214 98.6038C 130.544 95.088 131.209 91.4123 131.209 87.5768Z"/>
<path id="path3_fill" d="M 130.925 68.2451C 130.925 105.936 101.617 136.49 65.4627 136.49C 29.3086 136.49 0 105.936 0 68.2451C 0 30.5544 29.3086 0 65.4627 0C 101.617 0 130.925 30.5544 130.925 68.2451Z"/>
<path id="path4_fill" d="M 91.6655 105.161C 91.6655 105.858 91.541 106.381 91.292 106.73C 91.043 107.029 90.7441 107.303 90.3955 107.552C 90.0967 107.801 89.8228 108.05 89.5737 108.299C 89.3247 108.548 89.2002 108.921 89.2002 109.419C 89.2002 109.718 89.2251 109.942 89.2749 110.092C 87.5317 110.54 85.5894 110.839 83.4478 110.988C 81.356 111.138 79.4136 111.212 77.6206 111.212C 77.3716 111.212 77.0479 111.138 76.6494 110.988C 76.3008 110.889 75.9521 110.739 75.6035 110.54C 75.2549 110.391 74.9561 110.167 74.707 109.868C 74.5078 109.619 74.4082 109.345 74.4082 109.046C 73.8105 109.245 73.1382 109.395 72.3911 109.494C 71.6938 109.644 70.9966 109.818 70.2993 110.017C 69.6519 110.216 69.0293 110.49 68.4316 110.839C 67.834 111.188 67.3359 111.661 66.9375 112.258C 66.29 112.059 65.4185 111.885 64.3228 111.735C 63.2769 111.586 62.1562 111.412 60.9609 111.212C 59.7656 111.013 58.5703 110.764 57.375 110.465C 56.1797 110.216 55.084 109.868 54.0879 109.419C 53.1416 109.021 52.3447 108.523 51.6973 107.925C 51.0996 107.328 50.8008 106.581 50.8008 105.684C 50.8008 105.435 50.8257 105.012 50.8755 104.414C 50.9253 103.767 51.0249 103.119 51.1743 102.472C 51.3237 101.824 51.498 101.251 51.6973 100.753C 51.9463 100.255 52.2202 100.006 52.519 100.006C 53.0171 100.006 53.4902 100.106 53.9385 100.305C 54.4365 100.504 54.9595 100.604 55.5073 100.604L 56.2544 100.529L 56.3291 99.9316C 56.3291 99.5332 56.2046 99.2344 55.9556 99.0352C 55.7563 98.7861 55.4824 98.6367 55.1338 98.5869C 54.7852 98.4873 54.4365 98.4375 54.0879 98.4375C 53.7393 98.4375 53.4155 98.4375 53.1167 98.4375C 53.7642 97.79 54.1875 97.0181 54.3867 96.1216C 54.5859 95.2251 54.6855 94.3535 54.6855 93.5068C 54.6855 92.6104 54.561 91.5894 54.312 90.4438C 54.1128 89.2485 53.7642 88.103 53.2661 87.0073C 52.7681 85.9116 52.1455 84.9404 51.3984 84.0938C 50.7012 83.2471 49.8545 82.6992 48.8584 82.4502C 48.5596 81.8027 48.2109 81.1304 47.8125 80.4331C 47.4141 79.686 46.9409 79.0137 46.3931 78.416C 45.895 77.8184 45.2974 77.3203 44.6001 76.9219C 43.9526 76.5234 43.2305 76.3242 42.4336 76.3242C 41.5371 76.3242 40.3916 76.7974 38.9971 77.7437C 37.6025 78.6899 36.2329 79.7856 34.8882 81.0308C 33.5933 82.2261 32.4478 83.3965 31.4517 84.542C 30.5054 85.6875 30.0322 86.4595 30.0322 86.8579C 30.0322 87.4058 30.1069 87.9287 30.2563 88.4268C 30.4058 88.9248 30.4805 89.4478 30.4805 89.9956C 30.4805 90.8423 30.3062 91.6143 29.9575 92.3115C 29.6089 93.0088 29.1606 93.6313 28.6128 94.1792C 28.7622 95.0757 29.1357 95.748 29.7334 96.1963C 30.3311 96.6445 31.0283 96.9932 31.8252 97.2422C 32.6719 97.4414 33.5186 97.5908 34.3652 97.6904C 35.2119 97.7402 35.9839 97.8398 36.6812 97.9893C 36.98 98.2881 37.4033 98.6616 37.9512 99.1099C 38.5488 99.5581 39.0967 100.056 39.5947 100.604C 40.1426 101.102 40.6157 101.625 41.0142 102.173C 41.4126 102.721 41.6118 103.219 41.6118 103.667C 41.6118 104.165 41.4126 104.464 41.0142 104.563C 40.6655 104.663 40.2671 104.738 39.8188 104.788C 39.3706 104.837 38.9473 104.937 38.5488 105.086C 38.2002 105.236 38.0259 105.56 38.0259 106.058C 38.0259 106.406 38.0757 106.705 38.1753 106.954C 35.7847 107.054 33.4438 107.303 31.1528 107.701C 28.9116 108.05 26.6455 108.498 24.3545 109.046C 23.4082 109.295 22.4619 109.444 21.5156 109.494C 20.5693 109.544 19.5981 109.569 18.6021 109.569C 17.6558 109.569 16.6846 109.594 15.6885 109.644C 14.6924 109.693 13.7212 109.818 12.7749 110.017C 12.0776 110.167 11.3804 110.241 10.6831 110.241C 9.5376 110.241 8.4668 110.017 7.4707 109.569C 6.47461 109.121 5.60303 108.498 4.85596 107.701C 4.10889 106.904 3.51123 106.008 3.06299 105.012C 2.66455 104.016 2.46533 102.945 2.46533 101.799C 2.46533 100.704 2.76416 99.6826 3.36182 98.7363C 4.00928 97.79 4.98047 97.3169 6.27539 97.3169C 6.67383 97.3169 6.99756 97.5161 7.24658 97.9146C 7.49561 98.2632 7.81934 98.4375 8.21777 98.4375C 8.41699 98.4375 8.59131 98.3379 8.74072 98.1387C 8.89014 97.8896 9.03955 97.6157 9.18896 97.3169C 9.38818 97.0181 9.63721 96.7441 9.93604 96.4951C 10.2349 96.2461 10.6084 96.0718 11.0566 95.9722C 12.4512 95.7729 13.5967 95.2998 14.4932 94.5527C 15.4395 93.8057 16.1616 92.9092 16.6597 91.8633C 17.1577 90.7676 17.5063 89.5972 17.7056 88.3521C 17.9048 87.0571 18.0044 85.7871 18.0044 84.542C 18.0044 83.5459 17.8799 82.5996 17.6309 81.7031C 17.4316 80.7568 17.332 79.8105 17.332 78.8643C 17.332 77.5693 17.5562 76.2495 18.0044 74.9048C 18.5024 73.5103 18.7515 71.9663 18.7515 70.2729C 18.7515 67.9321 18.6021 65.6411 18.3032 63.3999C 18.0542 61.1089 17.9297 58.793 17.9297 56.4521C 17.9297 54.709 18.0293 52.9409 18.2285 51.1479C 18.4277 49.355 18.5273 47.5869 18.5273 45.8438C 18.5273 45.1963 18.4277 44.5986 18.2285 44.0508C 18.0791 43.4531 17.9048 42.9053 17.7056 42.4072C 17.5063 41.8594 17.3071 41.3613 17.1079 40.9131C 16.9585 40.415 16.8838 39.917 16.8838 39.4189C 16.8838 38.4229 17.0581 37.4268 17.4067 36.4307C 17.7554 35.4346 17.9297 34.4385 17.9297 33.4424C 17.9297 32.2969 17.7305 31.2012 17.332 30.1553C 16.9834 29.1094 16.8091 28.0137 16.8091 26.8682C 16.8091 26.0215 16.8838 25.1748 17.0332 24.3281C 17.2324 23.4316 17.332 22.5352 17.332 21.6387C 17.332 19.8457 16.9336 18.501 16.1367 17.6045C 15.3896 16.708 14.4434 16.0605 13.2979 15.6621C 12.1523 15.2139 10.8823 14.9399 9.48779 14.8403C 8.14307 14.7407 6.89795 14.5913 5.75244 14.3921C 4.60693 14.1431 3.63574 13.7446 2.83887 13.1968C 2.0918 12.6489 1.71826 11.7524 1.71826 10.5073C 1.71826 9.06299 2.04199 7.89258 2.68945 6.99609C 3.33691 6.04981 4.15869 5.32763 5.15479 4.82959C 6.15088 4.33155 7.24658 4.00781 8.44189 3.8584C 9.63721 3.65918 10.8076 3.55957 11.9531 3.55957C 15.1904 4.25684 17.7305 4.8545 19.5732 5.35254C 21.416 5.85058 22.7856 6.27393 23.6821 6.62256C 24.6284 6.97119 25.2012 7.24512 25.4004 7.44434C 25.6494 7.64355 25.8237 7.81787 25.9233 7.96729C 26.2222 8.86377 26.4712 10.2085 26.6704 12.0015C 26.9194 13.7944 27.1187 15.687 27.2681 17.6792C 27.4175 19.6216 27.5171 21.5142 27.5669 23.3569C 27.6665 25.1499 27.7163 26.4946 27.7163 27.3911C 27.7163 28.7358 27.5171 30.0308 27.1187 31.2759C 26.7202 32.4712 26.521 33.7163 26.521 35.0112C 26.521 36.4058 26.6953 37.7505 27.0439 39.0454C 27.4424 40.3403 27.6914 41.6851 27.791 43.0796C 27.8408 43.9761 27.8657 44.8726 27.8657 45.769C 27.9155 46.6157 27.9404 47.4873 27.9404 48.3838C 27.9404 49.6787 27.9155 50.9985 27.8657 52.3433C 27.8657 53.688 27.8657 55.0327 27.8657 56.3774C 27.8657 58.27 27.9155 60.1377 28.0151 61.9805C 28.1147 63.8232 28.314 65.666 28.6128 67.5088C 28.8618 67.6084 29.0859 67.6582 29.2852 67.6582C 29.4844 67.6582 29.7085 67.6582 29.9575 67.6582C 30.9536 67.6582 31.7754 67.4092 32.4229 66.9111C 33.0703 66.3633 33.668 65.7407 34.2158 65.0435C 34.7637 64.3462 35.3364 63.6489 35.9341 62.9517C 36.5317 62.2046 37.2788 61.6318 38.1753 61.2334C 39.3706 60.7354 40.3667 60.0132 41.1636 59.0669C 42.0103 58.0708 42.8071 57.0498 43.5542 56.0039C 44.3013 54.958 45.0732 53.9868 45.8701 53.0903C 46.7168 52.144 47.7378 51.4219 48.9331 50.9238C 50.1782 50.4258 50.8008 49.5293 50.8008 48.2344C 50.8008 47.4873 50.7012 46.7651 50.502 46.0679C 50.3027 45.3208 50.0537 44.5986 49.7549 43.9014C 49.5059 43.2041 49.2817 42.5068 49.0825 41.8096C 48.8833 41.0625 48.7837 40.3154 48.7837 39.5684L 48.8584 38.7466L 49.4561 38.8213L 49.6802 38.8213C 49.8794 38.8213 50.0786 38.8213 50.2778 38.8213C 50.4771 38.7715 50.5767 38.647 50.5767 38.4478C 50.3276 38.0493 50.2031 37.6011 50.2031 37.103C 50.2031 36.4058 50.3525 35.9575 50.6514 35.7583C 51 35.5591 51.4731 35.4595 52.0708 35.4595C 53.1665 35.4595 54.2124 35.6587 55.2085 36.0571C 56.2544 36.4556 57.3252 36.6548 58.4209 36.6548C 59.2178 36.6548 59.9648 36.5552 60.6621 36.356C 61.4092 36.1069 62.1562 35.8579 62.9033 35.6089C 63.6504 35.3101 64.3726 35.061 65.0698 34.8618C 65.8169 34.6128 66.5889 34.4883 67.3857 34.4883C 68.7305 34.4883 70.0503 34.6626 71.3452 35.0112C 72.6401 35.3599 73.96 35.5342 75.3047 35.5342C 76.6992 35.5342 78.0688 35.335 79.4136 34.9365C 80.7583 34.5381 82.1528 34.3389 83.5972 34.3389C 83.8462 34.3389 84.1948 34.4136 84.6431 34.563C 85.0913 34.7124 85.5146 34.9116 85.9131 35.1606C 86.3613 35.4097 86.7349 35.6836 87.0337 35.9824C 87.3823 36.2812 87.5566 36.5801 87.5566 36.8789C 87.457 37.2275 87.2578 37.4766 86.959 37.626C 86.6602 37.7256 86.5107 37.875 86.5107 38.0742C 86.5107 38.3232 86.6353 38.6221 86.8843 38.9707C 87.1333 39.2695 87.4072 39.6182 87.7061 40.0166C 88.0547 40.3652 88.3535 40.7637 88.6025 41.2119C 88.8516 41.6104 88.9761 42.0337 88.9761 42.4819C 88.9761 43.1294 88.3784 43.752 87.1831 44.3496C 85.9878 44.9473 84.5933 45.4951 82.9995 45.9932C 81.4556 46.4414 79.9365 46.8149 78.4424 47.1138C 76.9482 47.3628 75.9023 47.4873 75.3047 47.4873C 74.2588 47.4873 73.4619 47.313 72.9141 46.9644C 72.416 46.5659 71.918 46.3667 71.4199 46.3667C 70.623 46.3667 69.6021 46.6904 68.3569 47.3379C 67.1118 47.9355 65.7671 48.7324 64.3228 49.7285C 62.9282 50.7246 61.5088 51.8701 60.0645 53.165C 58.6201 54.4102 57.3003 55.6553 56.105 56.9004C 54.9595 58.1455 53.9883 59.3408 53.1914 60.4863C 52.4443 61.6318 52.0708 62.5781 52.0708 63.3252C 52.021 64.1221 51.8965 64.894 51.6973 65.6411C 51.498 66.3882 51.3984 67.1602 51.3984 67.957C 51.3984 68.6543 51.6226 69.2271 52.0708 69.6753C 52.519 70.1235 53.042 70.5469 53.6396 70.9453C 54.2373 71.2939 54.835 71.6924 55.4326 72.1406C 56.0801 72.5889 56.5532 73.1367 56.8521 73.7842C 57.3003 74.7803 57.9727 75.9258 58.8691 77.2207C 59.7656 78.4658 60.7368 79.8105 61.7827 81.2549C 62.8784 82.6494 63.9741 84.0688 65.0698 85.5132C 66.1655 86.9575 67.1616 88.377 68.0581 89.7715C 69.0044 91.1162 69.7515 92.4111 70.2993 93.6562C 70.897 94.8516 71.1958 95.8975 71.1958 96.7939L 71.1958 97.3169C 73.686 96.769 76.1265 96.4951 78.5171 96.4951C 80.1606 96.4951 81.7793 96.5947 83.373 96.7939C 85.0166 96.9434 86.6353 97.1177 88.229 97.3169L 88.229 97.9893L 88.229 98.3628C 88.229 99.3589 88.4033 100.181 88.752 100.828C 89.1006 101.426 89.499 101.974 89.9473 102.472C 90.3955 102.92 90.7939 103.368 91.1426 103.816C 91.4912 104.215 91.6655 104.663 91.6655 105.161Z"/>
</defs>
</svg>
